# AST/ASF file generated using VICON BodyLanguage
# -----------------------------------------------
:version 1.10
:name VICON
:units
  mass 1.0
  length 0.45
  angle deg
:documentation
   .ast/.asf automatically generated from VICON data using
   VICON BodyBuilder and BodyLanguage model FoxedUp or BRILLIANT.MOD
:root
   order TX TY TZ RX RY RZ
   axis XYZ
   position 0 0 0  
   orientation 0 0 0 
:bonedata
  begin
     id 1 
     name lhipjoint
     direction 0.610259 -0.730986 0.305356 
     length 2.50941 
     axis 0 0 0  XYZ
  end
  begin
     id 2 
     name lfemur
     direction 0.34202 -0.939693 0  
     length 7.48822  
     axis 0 0 20  XYZ
    dof rx ry rz
    limits (-160.0 20.0)
           (-70.0 70.0)
           (-60.0 70.0)
  end
  begin
     id 3 
     name ltibia
     direction 0.34202 -0.939693 0   
     length 7.60141   
     axis 0 0 20   XYZ
    dof rx
    limits (-10.0 170.0)
  end
  begin
     id 4 
     name lfoot
     direction 0.0673488 -0.185039 0.980421   
     length 2.04049   
     axis -90 7.62852e-016 20   XYZ
    dof rx rz
    limits (-45.0 90.0)
           (-70.0 20.0)
  end
  begin
     id 5 
     name ltoes
     direction 1.5356e-011 -4.21729e-011 1   
     length 1.02897   
     axis -90 7.62852e-016 20   XYZ
    dof rx
    limits (-90.0 20.0)
  end
  begin
     id 6 
     name rhipjoint
     direction -0.57612 -0.754205 0.315056   
     length 2.43216  
     axis 0 0 0  XYZ 
  end
  begin
     id 7 
     name rfemur
     direction -0.34202 -0.939693 0   
     length 7.42799   
     axis 0 0 -20   XYZ
    dof rx ry rz
    limits (-160.0 20.0)
           (-70.0 70.0)
           (-70.0 60.0)
  end
  begin
     id 8 
     name rtibia
     direction -0.34202 -0.939693 0   
     length 7.69484   
     axis 0 0 -20   XYZ
    dof rx
    limits (-10.0 170.0)
 end
 begin
     id 9 
     name rfoot
     direction -0.111837 -0.30727 0.945028   
     length 2.15769  
     axis -90 -7.62852e-016 -20   XYZ
    dof rx rz
    limits (-45.0 90.0)
           (-20.0 70.0)
  end
  begin
     id 10 
     name rtoes
     direction -1.53539e-011 -4.21878e-011 1   
     length 1.07391   
     axis -90 -7.62852e-016 -20   XYZ
    dof rx
    limits (-90.0 20.0)
  end
  begin
     id 11 
     name lowerback
     direction 0.00552624 0.990109 -0.140195   
     length 2.12403   
     axis 0 0 0   XYZ
    dof rx ry rz
    limits (-20.0 45.0)
           (-30.0 30.0)
           (-30.0 30.0)
  end
  begin
     id 12 
     name upperback
     direction 0.00361898 0.999976 -0.00584723   
     length 2.13232   
     axis 0 0 0   XYZ
    dof rx ry rz
    limits (-20.0 45.0)
           (-30.0 30.0)
           (-30.0 30.0)
  end
  begin
     id 13 
     name thorax
     direction -0.000331275 0.998253 0.0590847   
     length 2.17688   
     axis 0 0 0   XYZ
    dof rx ry rz
    limits (-20.0 45.0)
           (-30.0 30.0)
           (-30.0 30.0)
  end
  begin
     id 14 
     name lowerneck
     direction -0.0561561 0.979832 0.19177   
     length 1.64159   
     axis 0 0 0   XYZ
    dof rx ry rz
    limits (-20.0 45.0)
           (-30.0 30.0)
           (-30.0 30.0)
  end
  begin
     id 15 
     name upperneck
     direction 0.0827153 0.979385 -0.184293   
     length 1.68939   
     axis 0 0 0   XYZ
    dof rx ry rz
    limits (-20.0 45.0)
           (-30.0 30.0)
           (-30.0 30.0)
  end
  begin
     id 16
     name head
     direction 0.0278583 0.995936 -0.0856488  
     length 1.70207  
     axis 0 0 0   XYZ
    dof rx ry rz
    limits (-20.0 45.0)
           (-30.0 30.0)
           (-30.0 30.0)
  end
  begin
     id 17 
     name lclavicle
     direction 0.950993 0.301131 -0.0702275  
     length 3.41652  
     axis 0 0 0   XYZ
    dof ry rz
    limits (-20.0 10.0)
           (0.0 20.0)
  end
  begin
     id 18 
     name lhumerus
     direction 1 -4.48981e-011 -3.9662e-029   
     length 5.32955   
     axis 180 -30 -90   XYZ
    dof rx ry rz
    limits (-60.0 90.0)
           (-90.0 90.0)
           (-90.0 90.0)
  end
  begin
     id 19
     name lradius
     direction 1 -4.48925e-011 -9.0549e-027   
     length 3.69232   
     axis 180 -30 -90   XYZ
    dof rx
    limits (-10.0 170.0)
  end
  begin
     id 20
     name lwrist
     direction 1 -4.49007e-011 -1.49005e-026   
     length 1.84616   
     axis 9.0955e-015 90 90   XYZ
    dof ry
    limits (-180.0 0.0)
 end
  begin
     id 21 
     name lhand
     direction 1 -4.49016e-011 -2.98023e-026   
     length 0.536598   
     axis 1.90115e-014 90 90   XYZ
    dof rx rz
    limits (-90.0 90.0)
           (-45.0 45.0)
  end
  begin
     id 22 
     name lfingers
     direction 1 -4.48924e-011 -5.9578e-026   
     length 0.432619   
     axis 3.80223e-014 90 90   XYZ
    dof rx
    limits (0.0 90.0)
  end
  begin
     id 23
     name lthumb
     direction 0.707107 -6.34947e-011 0.707107   
     length 0.621157   
     axis -90 45 -3.84942e-014   XYZ
    dof rx rz
    limits (-45.0 45.0)
           (-45.0 45.0)
  end
  begin
     id 24 
     name rclavicle
     direction -0.955495 0.276497 -0.102848   
     length 3.36357  
     axis 0 0 0   XYZ 
    dof ry rz
    limits (-10.0 20.0)
           (-20.0 0.0)
  end
  begin
     id 25 
     name rhumerus
     direction -1 -4.48961e-011 3.30983e-027  
     length 5.23431   
     axis 180 30 90   XYZ
    dof rx ry rz
    limits (-90.0 60.0)
           (-90.0 90.0)
           (-90.0 90.0)
  end
  begin
     id 26 
     name rradius
     direction -1 -4.48965e-011 -6.63263e-027   
     length 3.55301   
     axis 180 30 90   XYZ
    dof rx
    limits (-10.0 170.0)
  end
  begin
     id 27 
     name rwrist
     direction -1 -4.48942e-011 -1.48958e-026   
     length 1.77651   
     axis 9.0955e-015 -90 -90   XYZ
    dof ry
    limits (-180.0 0.0)
  end
  begin
     id 28
     name rhand
     direction -1 -4.48977e-011 -2.97966e-026   
     length 0.772522   
     axis 1.90115e-014 -90 -90   XYZ
    dof rx rz
    limits (-90.0 90.0)
           (-45.0 45.0)
  end
  begin
     id 29
     name rfingers
     direction -1 -4.49135e-011 -5.96389e-026   
     length 0.622827   
     axis 3.80223e-014 -90 -90   XYZ
    dof rx
    limits (0.0 90.0)
  end
  begin
     id 30
     name rthumb
     direction -0.707107 -6.34969e-011 0.707107   
     length 0.894259   
     axis -90 -45 3.84942e-014   XYZ
    dof rx rz
    limits (-45.0 45.0)
           (-45.0 45.0)
  end
:hierarchy
  begin
    root lhipjoint rhipjoint lowerback
    lhipjoint lfemur
    lfemur ltibia
    ltibia lfoot
    lfoot ltoes
    rhipjoint rfemur
    rfemur rtibia
    rtibia rfoot
    rfoot rtoes
    lowerback upperback
    upperback thorax
    thorax lowerneck lclavicle rclavicle
    lowerneck upperneck
    upperneck head
    lclavicle lhumerus
    lhumerus lradius
    lradius lwrist
    lwrist lhand lthumb
    lhand lfingers
    rclavicle rhumerus
    rhumerus rradius
    rradius rwrist
    rwrist rhand rthumb
    rhand rfingers
  end

#!OML:ASF F:\VICON\USERDATA\INSTALL\rory3\rory3.ASF
:FULLY-SPECIFIED
:DEGREES
1
root -13.6941 17.792 -12.5121 1.56033 33.4036 -1.16135
lowerback 10.5105 3.18607 2.75575
upperback 0.698532 4.60347 0.650637
thorax -4.99037 2.22021 -1.53374
lowerneck -16.2342 -7.38665 -12.4061
upperneck 33.0768 -9.47709 8.14975
head 15.3706 -4.3834 3.87308
rclavicle 4.9895e-014 -2.90226e-014
rhumerus -30.5705 -12.7607 -80.6351
rradius 28.3011
rwrist 7.393
rhand -17.5725 8.44268
rfingers 7.12502
rthumb 8.68289 -21.3587
lclavicle 4.9895e-014 -2.90226e-014
lhumerus -37.5083 17.9328 76.631
lradius 25.7224
lwrist -8.80709
lhand -21.0076 27.0364
lfingers 7.12502
lthumb 5.36705 56.9484
rfemur 12.9424 -1.03682 25.1636
rtibia 13.484
rfoot -11.1074 -5.25274
rtoes -15.8887
lfemur -22.1151 -2.04907 -19.3159
ltibia 16.0834
lfoot -2.15235 -3.12287
ltoes -7.45212
2
root -13.6113 17.8044 -12.4303 1.6312 33.3682 -1.02163
lowerback 10.4889 3.22559 2.67599
upperback 0.654929 4.64137 0.555716
thorax -5.02071 2.23853 -1.59353
lowerneck -16.1431 -7.40983 -12.3618
upperneck 33.1414 -9.53646 8.14172
head 15.3852 -4.40552 3.85481
rclavicle 3.71727e-014 -1.31198e-014
rhumerus -30.8959 -12.915 -80.5993
rradius 28.5628
rwrist 6.95882
rhand -17.2351 8.10736
rfingers 7.12502
rthumb 9.00847 -21.6803
lclavicle 3.71727e-014 -1.31198e-014
lhumerus -37.5399 17.874 76.4951
lradius 25.6816
lwrist -9.15709
lhand -20.9524 26.9743
lfingers 7.12502
lthumb 5.4203 56.885
rfemur 12.8982 -0.928969 24.9445
rtibia 14.3868
rfoot -10.6187 -5.22242
rtoes -15.2479
lfemur -21.7556 -1.87438 -19.602
ltibia 15.9269
lfoot -2.14176 -3.19281
ltoes -8.49082
3
root -13.5252 17.8158 -12.3456 1.81759 33.4181 -0.686286
lowerback 10.3813 3.22091 2.44781
upperback 0.650654 4.59646 0.400424
thorax -4.97177 2.22085 -1.61476
lowerneck -16.1854 -7.41615 -12.313
upperneck 33.2084 -9.58021 8.19371
head 15.4334 -4.40987 3.86199
rclavicle 2.6985e-014 1.19271e-015
rhumerus -31.1618 -13.1377 -80.6186
rradius 28.8624
rwrist 6.5062
rhand -17.1674 7.84721
rfingers 7.12502
rthumb 9.0738 -21.9376
lclavicle 2.6985e-014 1.19271e-015
lhumerus -37.4566 17.7495 76.4164
lradius 25.6711
lwrist -9.12611
lhand -20.5972 26.7375
lfingers 7.12502
lthumb 5.76325 56.6391
rfemur 12.7043 -0.903107 24.5171
rtibia 15.4892
rfoot -10.115 -5.08841
rtoes -13.8267
lfemur -21.3168 -1.84485 -20.0131
ltibia 15.7574
lfoot -1.80858 -3.55616
ltoes -6.67856
4
root -13.4362 17.8311 -12.257 2.0046 33.4389 -0.360513
lowerback 10.1945 3.21561 2.16064
upperback 0.694086 4.54552 0.3116
thorax -4.83888 2.20422 -1.52629
lowerneck -16.3098 -7.43847 -12.3827
upperneck 33.2738 -9.58474 8.20343
head 15.5007 -4.41674 3.87666
rclavicle -1.36267e-013 -8.34896e-015
rhumerus -31.4354 -13.3492 -80.534
rradius 29.2008
rwrist 6.35397
rhand -17.4321 8.1631
rfingers 7.12502
rthumb 8.81835 -21.6327
lclavicle -1.36267e-013 -8.34896e-015
lhumerus -37.2995 17.6652 76.5125
lradius 25.6719
lwrist -8.8993
lhand -20.6783 26.8109
lfingers 7.12502
lthumb 5.68498 56.7146
rfemur 12.4814 -0.86745 24.0847
rtibia 16.5829
rfoot -9.6477 -4.92728
rtoes -13.0422
lfemur -20.8248 -1.68022 -20.4166
ltibia 15.6372
lfoot -1.34489 -4.14567
ltoes -5.17743
5
root -13.3489 17.8455 -12.1691 1.96282 33.4601 -0.347635
lowerback 10.1018 3.20325 2.09321
upperback 0.717042 4.52017 0.338363
thorax -4.7714 2.19495 -1.45066
lowerneck -16.2936 -7.48699 -12.5737
upperneck 33.2784 -9.60465 8.22275
head 15.518 -4.44774 3.91397
rclavicle -8.06072e-014 -1.03368e-014
rhumerus -31.8039 -13.5196 -80.3613
rradius 29.4687
rwrist 6.46968
rhand -17.5536 8.26815
rfingers 7.12502
rthumb 8.70116 -21.5325
lclavicle -8.06072e-014 -1.03368e-014
lhumerus -37.2612 17.827 76.532
lradius 25.6493
lwrist -9.11486
lhand -20.7323 27.1398
lfingers 7.12502
lthumb 5.63282 57.0449
rfemur 12.261 -0.762581 23.9664
rtibia 17.7708
rfoot -9.2728 -4.79812
rtoes -13.4193
lfemur -20.2648 -1.31663 -20.5791
ltibia 15.5145
lfoot -1.18208 -4.49517
ltoes -7.00242
6
root -13.2602 17.8521 -12.0834 1.82621 33.5077 -0.367339
lowerback 10.1647 3.14022 2.14485
upperback 0.703563 4.44247 0.305523
thorax -4.81685 2.15423 -1.50755
lowerneck -16.3272 -7.44587 -12.6109
upperneck 33.3858 -9.55793 8.29102
head 15.5783 -4.42331 3.96315
rclavicle -4.1546e-014 -5.1684e-015
rhumerus -32.1485 -13.6835 -80.3012
rradius 29.5688
rwrist 6.49409
rhand -17.5268 8.31372
rfingers 7.12502
rthumb 8.72697 -21.4859
lclavicle -4.1546e-014 -5.1684e-015
lhumerus -37.378 18.1609 76.298
lradius 25.6657
lwrist -9.53314
lhand -20.5957 26.6801
lfingers 7.12502
lthumb 5.76468 56.5817
rfemur 12.0858 -0.804243 23.8271
rtibia 19.0317
rfoot -8.87139 -4.6111
rtoes -12.6565
lfemur -19.6496 -1.02775 -20.6786
ltibia 15.4478
lfoot -1.18679 -4.54789
ltoes -8.29489
7
root -13.1694 17.8633 -11.9945 1.75263 33.569 -0.303834
lowerback 10.1371 3.07279 2.0792
upperback 0.693336 4.3434 0.275897
thorax -4.81838 2.10637 -1.48704
lowerneck -16.4224 -7.35436 -12.4422
upperneck 33.533 -9.4125 8.12724
head 15.6266 -4.36011 3.89537
rclavicle -5.45167e-014 -7.95139e-016
rhumerus -32.4764 -13.6666 -80.2586
rradius 29.71
rwrist 6.2673
rhand -17.4472 8.50691
rfingers 7.12502
rthumb 8.80382 -21.2895
lclavicle -5.45167e-014 -7.95139e-016
lhumerus -37.478 18.2208 76.1988
lradius 25.7338
lwrist -9.53231
lhand -20.4564 26.2418
lfingers 7.12502
lthumb 5.89919 56.1397
rfemur 11.8247 -0.960955 23.5626
rtibia 20.4074
rfoot -8.06654 -4.13858
rtoes -13.5479
lfemur -19.0304 -0.883068 -20.789
ltibia 15.3895
lfoot -1.15525 -4.75
ltoes -6.79073
8
root -13.0791 17.8755 -11.9041 1.59102 33.6291 -0.424468
lowerback 10.078 3.00576 2.07543
upperback 0.693104 4.25617 0.344644
thorax -4.79437 2.06459 -1.39821
lowerneck -16.4691 -7.30039 -12.4798
upperneck 33.5942 -9.30874 8.10424
head 15.6533 -4.32388 3.9139
rclavicle 7.57867e-014 -1.66979e-014
rhumerus -32.8393 -13.6411 -80.1141
rradius 30.0165
rwrist 6.04546
rhand -17.2857 8.43585
rfingers 7.12502
rthumb 8.95969 -21.3539
lclavicle 7.57867e-014 -1.66979e-014
lhumerus -37.5277 18.1448 76.2657
lradius 25.8338
lwrist -9.28419
lhand -20.6365 26.4457
lfingers 7.12502
lthumb 5.72527 56.3483
rfemur 11.4412 -1.07 23.4777
rtibia 21.9095
rfoot -7.49097 -3.78149
rtoes -8.44582
lfemur -18.4583 -0.464429 -20.7651
ltibia 15.3192
lfoot -1.24811 -5.4836
ltoes -5.47916
9
root -12.9932 17.8826 -11.8144 1.5113 33.6965 -0.591894
lowerback 10.0223 2.92657 2.25074
upperback 0.606306 4.16694 0.274819
thorax -4.83955 2.01456 -1.55594
lowerneck -16.4502 -7.27855 -12.3603
upperneck 33.6545 -9.32168 8.10045
head 15.6708 -4.31549 3.89188
rclavicle 2.10712e-014 -2.90226e-014
rhumerus -33.2884 -13.8529 -80.1484
rradius 30.3236
rwrist 5.8837
rhand -17.0134 8.21349
rfingers 7.12502
rthumb 9.22245 -21.5648
lclavicle 2.10712e-014 -2.90226e-014
lhumerus -37.5811 17.7662 76.2082
lradius 25.959
lwrist -8.92519
lhand -20.7678 26.8846
lfingers 7.12502
lthumb 5.59853 56.7906
rfemur 10.8767 -1.22581 23.4331
rtibia 23.5118
rfoot -6.59195 -3.28583
rtoes -7.87687
lfemur -18.0885 0.208012 -20.7341
ltibia 15.2414
lfoot -1.30072 -6.46308
ltoes -4.06962
10
root -12.9029 17.892 -11.722 1.40311 33.7713 -0.678678
lowerback 10.1834 2.91903 2.60635
upperback 0.435039 4.19289 0.0522587
thorax -5.06585 2.01064 -2.00483
lowerneck -16.3029 -7.2813 -12.1903
upperneck 33.7325 -9.44034 8.2011
head 15.6857 -4.3329 3.88983
rclavicle -3.72721e-014 -2.18663e-015
rhumerus -33.9717 -14.413 -80.1212
rradius 30.5712
rwrist 6.02125
rhand -16.8812 8.31147
rfingers 7.12502
rthumb 9.34996 -21.4612
lclavicle -3.72721e-014 -2.18663e-015
lhumerus -37.6841 16.894 76.165
lradius 26.1785
lwrist -8.42271
lhand -20.847 27.0308
lfingers 7.12502
lthumb 5.52204 56.9388
rfemur 10.3188 -1.45444 23.264
rtibia 25.2456
rfoot -5.63383 -2.65466
rtoes -10.5675
lfemur -17.5697 0.88574 -20.784
ltibia 15.1276
lfoot -1.34034 -7.54446
ltoes -2.82324
11
root -12.8102 17.9027 -11.632 1.37591 33.8344 -0.461534
lowerback 9.92951 2.90608 2.25953
upperback 0.565009 4.12801 0.0658206
thorax -4.81612 1.99322 -1.76829
lowerneck -16.1617 -7.20524 -11.9212
upperneck 33.5916 -9.34601 7.99393
head 15.5359 -4.28959 3.7694
rclavicle -9.60627e-014 1.25234e-014
rhumerus -34.1165 -14.3019 -80.0202
rradius 30.6558
rwrist 5.87041
rhand -16.9562 8.44137
rfingers 7.12502
rthumb 9.27757 -21.3345
lclavicle -9.60627e-014 1.25234e-014
lhumerus -37.4876 16.8339 76.3331
lradius 26.1808
lwrist -8.41083
lhand -20.9724 26.9879
lfingers 7.12502
lthumb 5.40096 56.8991
rfemur 9.75805 -1.67974 22.7867
rtibia 27.1075
rfoot -4.56451 -1.98592
rtoes -12.1121
lfemur -16.8493 1.52008 -21.132
ltibia 14.8988
lfoot -1.36242 -8.46642
ltoes -2.41569
12
root -12.7223 17.9164 -11.5445 1.385 33.8221 -0.213232
lowerback 10.0777 3.09861 2.29744
upperback 0.296804 4.37537 -0.310933
thorax -5.13678 2.10112 -2.23386
lowerneck -15.2537 -7.28198 -11.5136
upperneck 33.4698 -9.72244 8.11954
head 15.2965 -4.39874 3.69779
rclavicle -4.98453e-014 6.36111e-015
rhumerus -35.0758 -14.9181 -79.9692
rradius 30.8174
rwrist 5.47965
rhand -16.9349 8.22283
rfingers 7.12502
rthumb 9.29815 -21.5521
lclavicle -4.98453e-014 6.36111e-015
lhumerus -37.5318 15.6538 76.1912
lradius 26.0816
lwrist -8.48458
lhand -21.0922 27.3774
lfingers 7.12502
lthumb 5.28533 57.2915
rfemur 9.06177 -1.84812 22.2961
rtibia 29.0449
rfoot -3.27905 -1.34409
rtoes -12.3365
lfemur -16.1497 2.16076 -21.4779
ltibia 14.6335
lfoot -1.33303 -9.31081
ltoes -1.0572
13
root -12.6368 17.9309 -11.459 1.41434 33.7689 0.0178257
lowerback 10.2065 3.19383 2.26477
upperback 0.137287 4.48845 -0.57745
thorax -5.35157 2.14821 -2.52395
lowerneck -14.8213 -7.30323 -11.3044
upperneck 33.4263 -9.90989 8.26218
head 15.1955 -4.44252 3.69684
rclavicle 1.0338e-013 -2.3556e-014
rhumerus -35.719 -15.3391 -79.9154
rradius 30.921
rwrist 5.55791
rhand -16.9604 8.07626
rfingers 7.12502
rthumb 9.27355 -21.6998
lclavicle 1.0338e-013 -2.3556e-014
lhumerus -37.6034 14.6551 76.2072
lradius 26.2525
lwrist -8.19763
lhand -21.0561 27.428
lfingers 7.12502
lthumb 5.32021 57.3413
rfemur 8.26502 -1.87805 21.8461
rtibia 31.0228
rfoot -1.76124 -0.795129
rtoes -11.0688
lfemur -15.4654 2.62105 -21.7639
ltibia 14.3385
lfoot -1.32761 -9.96911
ltoes 0.191509
